<svg id="Capa_4" data-name="Capa 4" xmlns="http://www.w3.org/2000/svg" viewBox="0 0 26.61 32.1"><title>ic_colchon</title><path d="M5.19.75H21.42a4.44,4.44,0,0,1,4.44,4.44v25a1.15,1.15,0,0,1-1.15,1.15H5.19A4.44,4.44,0,0,1,.75,26.91V5.19A4.44,4.44,0,0,1,5.19.75Z" fill="none" stroke="#251c47" stroke-miterlimit="10" stroke-width="1.5"/><line x1="6" y1="5.16" x2="9.98" y2="9.14" fill="none" stroke="#251c47" stroke-miterlimit="10" stroke-width="0.75"/><line x1="9.98" y1="5.16" x2="6" y2="9.14" fill="none" stroke="#251c47" stroke-miterlimit="10" stroke-width="0.75"/><line x1="6" y1="14.08" x2="9.98" y2="18.06" fill="none" stroke="#251c47" stroke-miterlimit="10" stroke-width="0.75"/><line x1="9.98" y1="14.08" x2="6" y2="18.06" fill="none" stroke="#251c47" stroke-miterlimit="10" stroke-width="0.75"/><line x1="6" y1="23" x2="9.98" y2="26.98" fill="none" stroke="#251c47" stroke-miterlimit="10" stroke-width="0.75"/><line x1="9.98" y1="23" x2="6" y2="26.98" fill="none" stroke="#251c47" stroke-miterlimit="10" stroke-width="0.75"/><line x1="16.82" y1="5.16" x2="20.8" y2="9.14" fill="none" stroke="#251c47" stroke-miterlimit="10" stroke-width="0.75"/><line x1="20.8" y1="5.16" x2="16.82" y2="9.14" fill="none" stroke="#251c47" stroke-miterlimit="10" stroke-width="0.75"/><path d="M45.48,407.7V396.12a5.19,5.19,0,0,1,4.8-4.2c4.2-.36,8-.54,8-.54" transform="translate(-32.73 -376.77)" fill="none" stroke="#251c47" stroke-miterlimit="10" stroke-width="1.5"/><path d="M58.59,394.83S56,403.38,45.78,408.12" transform="translate(-32.73 -376.77)" fill="none" stroke="#251c47" stroke-miterlimit="10" stroke-width="1.5"/></svg>