<svg id="Capa_2" data-name="Capa 2" xmlns="http://www.w3.org/2000/svg" viewBox="0 0 44.46 51.87"><title>ic_colchon_creado</title><line x1="17.71" y1="6.06" x2="15.73" y2="8.11" fill="none" stroke="#e83874" stroke-miterlimit="10" stroke-width="0.75"/><line x1="13.95" y1="5.95" x2="15.73" y2="8.11" fill="none" stroke="#e83874" stroke-miterlimit="10" stroke-width="0.75"/><line x1="30.55" y1="6.06" x2="28.57" y2="8.11" fill="none" stroke="#251c47" stroke-miterlimit="10" stroke-width="0.75"/><line x1="26.8" y1="5.95" x2="28.57" y2="8.11" fill="none" stroke="#251c47" stroke-miterlimit="10" stroke-width="0.75"/><path d="M97.68,435.24v-1a2.39,2.39,0,0,1,2.4-2.4h38.16a2.39,2.39,0,0,1,2.4,2.4v1" transform="translate(-96.93 -423.21)" fill="none" stroke="#251c47" stroke-miterlimit="10" stroke-width="1.5"/><path d="M132.63,431.76v-5.4a2.39,2.39,0,0,0-2.4-2.4H108a2.39,2.39,0,0,0-2.4,2.4v5.4" transform="translate(-96.93 -423.21)" fill="none" stroke="#251c47" stroke-miterlimit="10" stroke-width="1.5"/><rect x="0.75" y="12.03" width="42.96" height="39.84" fill="none"/></svg>