<svg id="Capa_1" data-name="Capa 1" xmlns="http://www.w3.org/2000/svg" viewBox="0 0 39.1 37.04"><title>ic_metas</title><path d="M59,419.2a2.56,2.56,0,0,1,1.95-2.83,2.61,2.61,0,0,1,2.46,2.95" transform="translate(-34.29 -401.55)" fill="none" stroke="#251c47" stroke-miterlimit="10" stroke-width="0.75"/><path d="M44.92,408.6a14.93,14.93,0,0,0-5,3,13.14,13.14,0,0,0-4.46,9.89h0A12.57,12.57,0,0,0,41,432c.49.32.8.49.8.49v3.44a1.93,1.93,0,0,0,2,1.91h2.46a1.93,1.93,0,0,0,1.95-1.91v-.53a.86.86,0,0,1,.87-.85h6.66a.86.86,0,0,1,.87.85v.53a1.93,1.93,0,0,0,1.95,1.91h2.88a1.93,1.93,0,0,0,1.95-1.91v-3.06c4.92-2.05,7.46-5.79,9.12-9.76A1.72,1.72,0,0,0,71,420.65H67.51c-.42-7.54-4.2-9.4-4.2-9.4s.6-2.53,0-3.06a1.39,1.39,0,0,0-1.5-.48c-.78.1-1.8,1.66-1.8,1.66a11.62,11.62,0,0,0-3.55-1.18" transform="translate(-34.29 -401.55)" fill="none" stroke="#251c47" stroke-miterlimit="10" stroke-width="1.5"/><ellipse cx="16.22" cy="6.64" rx="5.79" ry="6.14" fill="none" stroke="#e83874" stroke-miterlimit="10"/><path d="M46.57,408.06a3.84,3.84,0,0,1,7.68-.24" transform="translate(-34.29 -401.55)" fill="none" stroke="#251c47" stroke-miterlimit="10" stroke-width="0.75"/><path d="M36.72,415a3.34,3.34,0,0,1-1.5-1.26,3.48,3.48,0,0,1-.54-2.16" transform="translate(-34.29 -401.55)" fill="none" stroke="#251c47" stroke-miterlimit="10" stroke-width="0.75"/></svg>