<svg id="Capa_5" data-name="Capa 5" xmlns="http://www.w3.org/2000/svg" viewBox="0 0 31.22 31.22"><title>ic_two_person</title><rect x="65.96" y="419.58" width="23.18" height="23.74" rx="2.36" transform="translate(-344.31 -234.64) rotate(-45)" fill="#d9e2f4"/><path d="M78,433.66A4.58,4.58,0,0,0,74.7,432,4.69,4.69,0,0,0,70,435.52a.53.53,0,0,0,.51.67l5.71,0A4.63,4.63,0,0,1,78,433.66Z" transform="translate(-61.94 -415.84)" fill="none" stroke="#605286" stroke-miterlimit="10"/><ellipse cx="18.54" cy="13.48" rx="2.1" ry="2.13" fill="none" stroke="#605286" stroke-miterlimit="10"/><path d="M76.49,437a.42.42,0,0,1-.42-.5,4.61,4.61,0,0,1,9-.18.52.52,0,0,1-.5.65Z" transform="translate(-61.94 -415.84)" fill="none" stroke="#605286" stroke-miterlimit="10"/><ellipse cx="12.57" cy="12.77" rx="2.07" ry="2.1" fill="none" stroke="#605286" stroke-miterlimit="10"/></svg>